<?xml version="1.0" encoding="utf-8"?>
<!DOCTYPE svg PUBLIC "-//W3C//DTD SVG 1.1//EN" "http://www.w3.org/Graphics/SVG/1.1/DTD/svg11.dtd">
<svg alt="iBOMMA" id="logo" version="1.0" xmlns="http://www.w3.org/2000/svg"
 width="150px" height="60px" viewBox="0 0 112.000000 45.000000"
 preserveAspectRatio="xMidYMid meet">
<g transform="translate(0.000000,45.000000) scale(0.007467,-0.007500)" fill="#ffff0a" stroke="none"><path d="M822 4173 c-43 -21 -52 -56 -21 -89 22 -23 27 -24 160 -24 128 0 139
-2 149 -20 6 -11 8 -31 4 -44 -6 -24 -9 -24 -117 -28 -78 -2 -112 -7 -115 -16
-2 -7 -10 -19 -18 -27 -13 -12 -13 -17 -2 -30 39 -47 23 -45 339 -45 l299 0 0
170 0 170 -322 0 c-276 0 -328 -3 -356 -17z"></path><path d="M1905 4178 c-3 -7 -4 -535 -3 -1173 l3 -1160 610 -3 c395 -2 645 1
710 8 358 39 596 199 674 454 31 101 30 287 -2 388 -51 160 -159 274 -326 342
l-79 32 30 13 c42 19 149 121 192 184 50 73 76 156 83 263 12 189 -33 310
-161 440 -67 67 -98 89 -176 128 -181 89 -183 89 -913 93 -519 3 -638 2 -642
-9z m1108 -468 c142 -21 215 -75 238 -174 10 -44 10 -67 0 -110 -14 -65 -38
-98 -94 -130 -77 -45 -170 -56 -464 -56 l-268 0 3 240 3 240 257 0 c141 0 288
-5 325 -10z m152 -921 c150 -28 225 -106 225 -236 -1 -101 -46 -167 -142 -206
-68 -28 -186 -37 -503 -37 l-314 0 -3 245 -3 245 341 0 c203 0 364 -4 399 -11z"></path><path d="M7065 4178 c-3 -7 -4 -535 -3 -1173 l3 -1160 253 -3 252 -2 0 747 0
748 81 -125 c44 -69 93 -143 109 -165 15 -22 79 -120 141 -218 217 -338 294
-452 309 -454 18 -3 66 65 218 307 60 96 167 263 238 370 72 107 144 218 162
245 l32 50 0 -752 0 -753 255 0 255 0 0 1175 0 1175 -277 -2 -277 -3 -137
-225 c-76 -124 -157 -256 -180 -295 -68 -112 -250 -408 -266 -433 -14 -23 -15
-23 -65 60 -28 46 -103 165 -165 266 -63 101 -117 191 -121 200 -3 9 -10 22
-14 27 -5 6 -63 99 -129 208 l-120 197 -275 0 c-210 0 -276 -3 -279 -12z"></path><path d="M9905 4178 c-3 -7 -4 -535 -3 -1173 l3 -1160 255 0 255 0 5 733 5
733 173 -260 c95 -143 220 -336 278 -428 140 -221 163 -253 177 -253 15 1 38
34 185 260 62 96 131 201 153 232 21 31 39 60 39 64 0 4 19 34 42 68 23 33 84
126 135 205 l93 144 0 -752 0 -751 255 0 255 0 0 1175 0 1175 -277 -2 -276 -3
-67 -110 c-36 -60 -100 -166 -140 -235 -41 -69 -101 -168 -135 -220 -34 -52
-103 -164 -155 -247 -51 -84 -97 -153 -101 -153 -5 0 -64 93 -133 208 -68 114
-200 331 -294 482 l-169 275 -277 3 c-216 2 -278 0 -281 -10z"></path><path d="M13482 4073 c-90 -211 -258 -615 -312 -748 -29 -71 -85 -206 -125
-300 -41 -93 -118 -276 -173 -405 -55 -129 -128 -300 -163 -380 -34 -80 -62
-151 -62 -157 0 -7 -5 -13 -10 -13 -6 0 -8 -3 -5 -6 3 -3 -13 -53 -37 -110
-30 -73 -40 -107 -32 -110 7 -2 127 -3 267 -2 l254 3 48 115 c26 63 57 143 69
178 12 35 35 99 53 143 l32 79 482 3 482 2 79 -200 c43 -110 82 -211 86 -225
4 -14 16 -42 26 -62 l19 -38 265 0 c257 0 265 1 265 20 0 21 -42 129 -143 365
-36 83 -98 229 -139 325 -42 96 -97 227 -123 290 -26 63 -60 143 -76 176 -35
78 -114 271 -124 304 -4 14 -74 180 -155 370 -81 190 -162 380 -180 423 l-32
77 -243 0 -243 0 -50 -117z m318 -595 c12 -35 67 -173 121 -308 55 -135 109
-266 119 -292 l20 -48 -290 0 c-160 0 -290 2 -290 4 0 2 18 49 41 103 124 301
222 542 232 571 6 17 14 32 17 32 4 0 17 -28 30 -62z"></path><path d="M5180 4160 c-144 -31 -313 -100 -420 -173 -177 -120 -349 -332 -416
-513 -71 -187 -78 -232 -78 -459 0 -227 7 -272 78 -459 67 -181 239 -393 416
-513 111 -75 297 -150 440 -177 108 -21 342 -21 450 0 143 27 329 102 440 177
177 120 349 332 416 513 71 187 78 232 78 459 0 227 -7 272 -78 459 -67 181
-239 393 -416 513 -111 75 -297 150 -440 177 -116 22 -359 20 -470 -4z m372
-504 c155 -30 270 -95 366 -208 157 -184 200 -432 117 -672 -29 -85 -73 -151
-156 -237 -178 -183 -498 -233 -744 -115 -38 18 -89 49 -112 67 -105 84 -200
232 -223 346 -12 58 -32 113 -75 209 -61 134 -80 288 -51 398 19 67 56 120 94
131 l22 6 -19 -33 c-10 -18 -29 -66 -41 -107 -18 -59 -21 -89 -18 -160 6 -93
35 -211 52 -211 6 0 19 39 29 86 29 141 74 223 179 332 140 144 365 209 580
168z"></path><path d="M5556 3475 c-87 -30 -136 -95 -136 -180 0 -114 114 -203 223 -174 48
13 80 36 114 81 18 25 23 45 23 93 0 53 -4 68 -30 103 -49 68 -129 100 -194
77z"></path><path d="M5075 3344 c-45 -23 -76 -55 -96 -99 -24 -53 -24 -89 2 -143 23 -47
86 -95 139 -107 70 -15 177 50 201 122 26 81 -15 184 -91 223 -47 24 -114 26
-155 4z"></path><path d="M5392 3067 c-29 -31 -29 -77 1 -105 47 -45 127 -11 127 53 0 65 -84
99 -128 52z"></path><path d="M5667 3016 c-22 -8 -50 -25 -64 -38 -32 -29 -63 -94 -63 -133 0 -74
76 -168 145 -181 77 -14 139 13 193 83 23 31 27 46 27 98 0 52 -4 67 -27 97
-55 72 -138 101 -211 74z"></path><path d="M5175 2877 c-50 -28 -82 -76 -91 -133 -13 -91 71 -199 167 -211 46
-7 117 25 154 68 77 93 45 241 -62 285 -50 21 -122 17 -168 -9z"></path><path d="M506 4154 c-21 -21 -20 -47 2 -67 27 -25 133 -23 155 1 43 47 9 82
-78 82 -44 0 -68 -5 -79 -16z"></path><path d="M558 3455 c-8 -19 -8 -31 0 -50 l12 -25 153 0 c157 0 179 -5 213 -47
16 -18 6 -51 -18 -64 -12 -6 -104 -10 -241 -9 -121 0 -218 -2 -214 -6 4 -4 -3
-12 -16 -18 -15 -8 -23 -22 -25 -48 -3 -30 2 -39 26 -57 28 -19 45 -21 273
-23 l244 -3 9 -26 c13 -37 0 -79 -24 -79 -11 0 -20 -4 -20 -10 0 -6 -51 -10
-133 -10 -149 0 -167 -7 -167 -66 1 -63 6 -64 234 -64 131 0 206 -4 206 -10 0
-5 5 -9 12 -7 21 4 41 -46 34 -85 -10 -55 -27 -58 -297 -58 l-240 0 -24 -26
c-32 -35 -32 -74 1 -113 l26 -31 187 0 c185 0 188 0 198 -22 21 -44 23 -60 12
-104 l-11 -44 -304 0 c-291 0 -305 -1 -324 -20 -24 -24 -27 -95 -4 -125 14
-19 30 -20 352 -25 298 -4 341 -7 370 -23 28 -15 32 -22 32 -60 0 -23 -4 -47
-8 -53 -15 -23 -53 -34 -121 -34 -57 0 -78 -5 -106 -22 -31 -21 -35 -28 -35
-68 0 -40 4 -47 35 -67 34 -23 40 -23 340 -23 l305 0 0 825 0 825 -465 0 -465
0 -12 -25z"></path><path d="M86 2329 c-20 -16 -26 -29 -26 -60 0 -53 13 -74 51 -88 69 -24 136
43 109 109 -25 60 -85 78 -134 39z"></path></g></svg>
